<svg width="230" height="73" viewBox="0 0 230 73" fill="none" xmlns="http://www.w3.org/2000/svg">
<path fill-rule="evenodd" clip-rule="evenodd" d="M56.1233 36.737C54.537 25.7008 47.6538 12.5897 38.0947 5.39127C34.1783 2.44244 29.396 0.526245 24.9938 0.0885701C14.1188 -0.99741 4.42793 8.07203 1.52425 18.0223C-2.45527 31.2674 1.21961 48.9467 14.1764 62.3287C14.1778 62.33 14.1805 62.3328 14.1819 62.3341C14.1846 62.3396 14.1874 62.3437 14.1915 62.3478C14.2025 62.3574 14.2121 62.3656 14.223 62.3752C15.0258 63.1931 16.5915 64.4815 17.8238 65.3404C23.1344 69.4422 28.3709 72.0368 36.0981 72.1093C43.629 72.1791 45.6736 68.5874 42.5435 61.9142C38.7479 53.8255 32.1378 56.39 25.4535 48.4174C23.3759 45.9377 21.6894 43.1011 20.3652 40.1098C14.8941 27.7551 16.7027 15.0639 24.4051 11.7663C32.1089 8.46731 41.561 15.3114 47.0335 27.6662C48.4181 30.7928 49.4295 33.5556 50.0223 36.54C50.6672 39.7816 51.9969 40.1796 53.8165 41.2683C55.9531 42.5458 56.6461 40.3724 56.1233 36.737Z" fill="white"/>
<path d="M72.501 47.9057L73.3408 46.5489C73.4341 46.3903 73.5549 46.2644 73.7031 46.1714C73.8458 46.0798 74.0324 46.0346 74.2575 46.0346C74.4935 46.0346 74.724 46.1058 74.9436 46.248C75.1686 46.3944 75.4321 46.5544 75.7395 46.7295C76.0414 46.9114 76.4146 47.0741 76.8428 47.2218C77.2709 47.3696 77.8033 47.4448 78.4401 47.4448C78.9615 47.4448 79.4171 47.3805 79.8068 47.2547C80.1911 47.1275 80.5094 46.9579 80.7619 46.739C81.0144 46.5202 81.1955 46.274 81.3163 46.0018C81.4316 45.7283 81.492 45.426 81.492 45.1101C81.492 44.6874 81.3712 44.3428 81.1242 44.0706C80.8827 43.8025 80.5575 43.5673 80.1526 43.3758C79.7519 43.1775 79.2964 42.9983 78.7804 42.8383C78.2699 42.681 77.7485 42.5155 77.2215 42.3527C76.6946 42.1872 76.1731 41.9903 75.6681 41.7605C75.1576 41.5252 74.7021 41.2298 74.3014 40.8646C73.8952 40.5022 73.5768 40.0645 73.3353 39.5448C73.0938 39.0305 72.973 38.4013 72.973 37.6518C72.973 37.0008 73.1103 36.3702 73.3792 35.7753C73.6482 35.1789 74.042 34.6537 74.5703 34.1997C75.1028 33.7456 75.745 33.39 76.5134 33.1232C77.2764 32.8606 78.1601 32.728 79.1591 32.728C80.3063 32.728 81.3492 32.9044 82.2933 33.26C83.232 33.6156 84.0224 34.0957 84.6536 34.6989L83.8412 36.0174C83.7534 36.1706 83.6491 36.28 83.5339 36.3511C83.4186 36.4222 83.2814 36.4605 83.1112 36.4605C82.9246 36.4605 82.716 36.4003 82.4855 36.2731C82.2549 36.1473 81.9915 36.0119 81.695 35.8587C81.3986 35.711 81.0473 35.5729 80.6412 35.4525C80.235 35.3376 79.7629 35.2774 79.225 35.2774C78.7859 35.2774 78.3907 35.3267 78.0394 35.4306C77.6826 35.5346 77.3821 35.6877 77.1392 35.8847C76.8922 36.083 76.7001 36.3128 76.5683 36.574C76.4311 36.8353 76.3652 37.1211 76.3652 37.4275C76.3652 37.8323 76.4805 38.1661 76.7165 38.4328C76.9526 38.7022 77.2654 38.9375 77.6551 39.1344C78.0449 39.3314 78.4895 39.5065 78.9999 39.6706C79.5049 39.8292 80.0209 39.9934 80.5424 40.1575C81.0638 40.3216 81.5853 40.5199 82.1122 40.7429C82.6337 40.9672 83.1002 41.2462 83.5119 41.5745C83.9236 41.9082 84.2584 42.3007 84.5109 42.7712C84.7579 43.2376 84.8842 43.8011 84.8842 44.4563C84.8842 45.255 84.7414 45.995 84.4505 46.6665C84.1651 47.3395 83.7424 47.9249 83.1881 48.4227C82.6337 48.9192 81.942 49.3049 81.1077 49.5825C80.2734 49.8561 79.3293 49.9942 78.2589 49.9942C77.6826 49.9942 77.1172 49.9436 76.5628 49.841C76.0139 49.7371 75.498 49.588 75.004 49.4034C74.5154 49.2228 74.0599 48.9985 73.6372 48.7428C73.2145 48.4897 72.8358 48.2052 72.501 47.9057ZM88.1007 49.7371V33.0029H90.461C90.9934 33.0029 91.3392 33.2258 91.4929 33.6744L91.5643 35.1338C91.8716 34.7782 92.179 34.4623 92.5029 34.1723C92.8212 33.8823 93.167 33.6307 93.5403 33.4159C93.9122 33.2039 94.3143 33.0343 94.7369 32.914C95.1664 32.7882 95.6261 32.7266 96.1201 32.7266C96.6416 32.7266 97.1246 32.8046 97.5692 32.9564C98.0083 33.1164 98.3981 33.3352 98.7329 33.6184C99.0677 33.8974 99.3586 34.2421 99.6056 34.6524C99.8526 35.0586 100.061 35.5127 100.231 36.0146C100.489 35.4347 100.808 34.9369 101.186 34.5211C101.565 34.1039 101.993 33.7661 102.465 33.5035C102.937 33.2422 103.442 33.0494 103.969 32.9181C104.502 32.7923 105.045 32.7252 105.604 32.7252C106.504 32.7252 107.311 32.8675 108.019 33.1533C108.727 33.4324 109.325 33.8481 109.814 34.3952C110.302 34.9369 110.67 35.6043 110.923 36.3921C111.175 37.1731 111.301 38.0717 111.301 39.0729V49.7357H107.761V39.0729C107.761 37.8912 107.508 36.9994 106.998 36.4085C106.487 35.8108 105.725 35.5181 104.72 35.5181C104.264 35.5181 103.847 35.5947 103.452 35.7479C103.062 35.9052 102.717 36.1295 102.415 36.4263C102.113 36.7149 101.882 37.0869 101.712 37.5314C101.547 37.9732 101.465 38.4889 101.465 39.0743V49.7371H97.9246V39.0743C97.9246 37.8488 97.6776 36.9447 97.1836 36.3757C96.6896 35.8013 95.9706 35.5181 95.0155 35.5181C94.3623 35.5181 93.753 35.6864 93.1931 36.0201C92.6278 36.3593 92.1118 36.8134 91.6397 37.3933V49.7357H88.1007V49.7371ZM114.212 45.519C114.212 44.8789 114.386 44.2552 114.732 43.6425C115.085 43.0311 115.654 42.4772 116.45 41.9957C117.24 41.5088 118.289 41.1108 119.597 40.7867C120.896 40.4693 122.504 40.2888 124.416 40.245V39.1016C124.416 37.8761 124.158 36.9625 123.646 36.3661C123.131 35.7698 122.373 35.4689 121.379 35.4689C120.704 35.4689 120.136 35.5564 119.667 35.7315C119.2 35.9066 118.801 36.0994 118.46 36.3005C118.126 36.5015 117.822 36.6944 117.56 36.8708C117.298 37.0445 117.017 37.1321 116.716 37.1321C116.469 37.1321 116.261 37.0664 116.095 36.9338C115.926 36.8024 115.782 36.6438 115.666 36.4578L115.035 35.2761C116.936 33.5418 119.194 32.6787 121.813 32.6787C122.769 32.6787 123.624 32.8305 124.372 33.1438C125.123 33.4556 125.75 33.8933 126.253 34.4677C126.757 35.0367 127.143 35.7151 127.406 36.4906C127.676 37.2729 127.808 38.1387 127.808 39.0893V49.7357H126.233C125.887 49.7357 125.63 49.6865 125.453 49.5825C125.271 49.4841 125.124 49.2707 125.009 48.9534L124.694 47.598C124.273 47.9905 123.851 48.3352 123.432 48.6265C123.016 48.9206 122.588 49.1681 122.143 49.376C121.704 49.5825 121.227 49.7426 120.723 49.841C120.217 49.9436 119.651 49.9942 119.037 49.9942C118.356 49.9942 117.723 49.9012 117.131 49.7207C116.538 49.5402 116.029 49.2598 115.601 48.8836C115.167 48.5075 114.831 48.0356 114.585 47.479C114.338 46.9209 114.212 46.2631 114.212 45.519ZM117.603 45.2728C117.603 45.6626 117.67 45.9964 117.796 46.2644C117.928 46.538 118.105 46.7623 118.33 46.9373C118.555 47.1069 118.813 47.2383 119.115 47.319C119.415 47.4024 119.745 47.4448 120.113 47.4448C121.029 47.4448 121.825 47.2765 122.489 46.9373C123.153 46.5927 123.797 46.1112 124.416 45.4821V42.4129C123.153 42.469 122.09 42.5661 121.227 42.7206C120.366 42.8724 119.661 43.0708 119.126 43.317C118.582 43.5632 118.19 43.8545 117.957 44.1827C117.718 44.5137 117.603 44.8748 117.603 45.2728ZM131.947 49.7371V33.0029H134.174C134.582 33.0029 134.86 33.0672 135.015 33.193C135.173 33.3202 135.277 33.55 135.336 33.8714L135.409 35.9517C135.859 34.9341 136.452 34.1422 137.2 33.5554C137.945 32.9687 138.84 32.6801 139.894 32.6801C140.256 32.6801 140.596 32.717 140.914 32.8005C141.229 32.8771 141.513 33.0029 141.761 33.1711L141.52 35.7151C141.474 35.8847 141.41 36.0051 141.317 36.0707C141.223 36.1418 141.097 36.1747 140.936 36.1747C140.779 36.1747 140.543 36.1418 140.239 36.083C139.933 36.0215 139.609 35.9955 139.264 35.9955C138.776 35.9955 138.336 36.0666 137.945 36.2143C137.562 36.3607 137.222 36.5699 136.924 36.849C136.629 37.1225 136.37 37.4617 136.142 37.8597C135.908 38.2605 135.692 38.7145 135.487 39.2165V49.7371H131.947ZM142.564 35.0148V33.6102L145.28 33.193L146.054 28.3581C146.11 28.1762 146.2 28.0298 146.335 27.9094C146.472 27.7946 146.641 27.7344 146.855 27.7344H148.672V33.2272H153.332V35.7766H148.672V45.3344C148.672 45.9348 148.819 46.3944 149.116 46.7185C149.406 47.0413 149.803 47.2041 150.295 47.2041C150.576 47.2041 150.812 47.1671 151.01 47.0892C151.206 47.0139 151.378 46.9264 151.519 46.8375C151.656 46.75 151.777 46.6624 151.887 46.5804C151.991 46.4969 152.096 46.4545 152.196 46.4545C152.389 46.4545 152.547 46.5694 152.673 46.7992L153.722 48.5431C153.176 49.0081 152.532 49.3692 151.784 49.6208C151.039 49.8684 150.269 49.9929 149.473 49.9929C148.079 49.9929 147.01 49.6031 146.257 48.8221C145.503 48.0466 145.131 46.9401 145.131 45.5176V35.7739H143.287C143.094 35.7739 142.925 35.7083 142.778 35.5811C142.633 35.458 142.564 35.2665 142.564 35.0148ZM156.115 55.301V33.0029H158.477C159.01 33.0029 159.356 33.2204 159.508 33.6635L159.596 35.3759C159.942 34.9765 160.304 34.61 160.693 34.2762C161.078 33.948 161.494 33.6635 161.939 33.4282C162.383 33.1916 162.861 33.007 163.367 32.8757C163.876 32.7444 164.416 32.6787 164.992 32.6787C165.936 32.6787 166.794 32.8702 167.559 33.2477C168.333 33.6238 168.993 34.1723 169.542 34.8931C170.084 35.6098 170.507 36.5015 170.81 37.5697C171.111 38.6352 171.26 39.8566 171.26 41.2298C171.26 42.4772 171.094 43.6315 170.76 44.697C170.433 45.7638 169.947 46.6898 169.323 47.4721C168.696 48.2531 167.94 48.8672 167.05 49.3104C166.161 49.7521 165.155 49.9778 164.044 49.9778C163.06 49.9778 162.221 49.8233 161.53 49.5114C160.835 49.1996 160.211 48.7674 159.657 48.2148V55.2997H156.115V55.301ZM159.655 45.5313C160.148 46.1646 160.687 46.6077 161.28 46.8649C161.87 47.122 162.521 47.2547 163.242 47.2547C164.626 47.2547 165.7 46.75 166.47 45.7392C167.244 44.7326 167.628 43.2281 167.628 41.2312C167.628 40.2026 167.54 39.3218 167.366 38.5819C167.183 37.8488 166.936 37.2524 166.607 36.7874C166.283 36.3278 165.878 35.9941 165.406 35.7808C164.926 35.5729 164.396 35.4675 163.801 35.4675C162.892 35.4675 162.117 35.6659 161.475 36.0543C160.831 36.4482 160.223 37.0117 159.658 37.738V45.5313H159.655ZM173.789 41.3611C173.789 40.0317 173.983 38.839 174.36 37.7722C174.738 36.7108 175.288 35.8067 176.006 35.0654C176.726 34.32 177.586 33.7456 178.587 33.3366C179.591 32.9304 180.715 32.728 181.975 32.728C183.207 32.728 184.328 32.9304 185.327 33.3366C186.328 33.7456 187.177 34.32 187.878 35.0654C188.586 35.8081 189.13 36.7108 189.515 37.7722C189.898 38.839 190.089 40.0317 190.089 41.3611C190.089 42.6864 189.898 43.8777 189.515 44.9323C189.13 45.9895 188.585 46.8922 187.878 47.6458C187.176 48.4022 186.321 48.9766 185.322 49.376C184.317 49.7754 183.202 49.9778 181.975 49.9778C180.715 49.9778 179.593 49.7754 178.587 49.376C177.586 48.9766 176.727 48.4022 176.006 47.6458C175.288 46.8909 174.738 45.9895 174.36 44.9323C173.983 43.8777 173.789 42.6864 173.789 41.3611ZM177.425 41.3775C177.425 43.2664 177.796 44.7203 178.55 45.7337C179.3 46.7445 180.442 47.2547 181.975 47.2547C183.484 47.2547 184.607 46.7445 185.349 45.7337C186.089 44.7216 186.459 43.2664 186.459 41.3775C186.459 39.49 186.089 38.0307 185.349 36.9967C184.607 35.9681 183.484 35.4525 181.975 35.4525C180.442 35.4525 179.3 35.9681 178.55 36.9967C177.796 38.0307 177.425 39.49 177.425 41.3775ZM193.666 49.7371V33.0029H197.207V49.7371H193.666ZM201.653 49.7371V33.0029H204.012C204.546 33.0029 204.891 33.2258 205.044 33.6744L205.122 35.2282C205.468 34.8575 205.825 34.517 206.196 34.2106C206.571 33.9097 206.97 33.6471 207.4 33.4296C207.829 33.2108 208.285 33.0357 208.772 32.9153C209.259 32.7895 209.788 32.728 210.353 32.728C211.275 32.728 212.088 32.8812 212.783 33.1875C213.486 33.4898 214.072 33.922 214.549 34.4855C215.03 35.0422 215.391 35.7151 215.632 36.4974C215.874 37.2743 215.994 38.1346 215.994 39.0756V49.7385H212.454V39.0756C212.454 37.9541 212.196 37.0842 211.674 36.455C211.154 35.8314 210.364 35.5195 209.287 35.5195C208.496 35.5195 207.768 35.7001 207.097 36.0652C206.427 36.4277 205.792 36.9187 205.193 37.5369V49.7371H201.653ZM218.587 35.0148V33.6102L221.304 33.193L222.076 28.3581C222.132 28.1762 222.226 28.0298 222.357 27.9094C222.495 27.7946 222.663 27.7344 222.878 27.7344H224.694V33.2272H229.355V35.7766H224.694V45.3344C224.694 45.9348 224.844 46.3944 225.139 46.7185C225.431 47.0413 225.825 47.2041 226.318 47.2041C226.599 47.2041 226.835 47.1671 227.033 47.0892C227.229 47.0139 227.4 46.9264 227.542 46.8375C227.679 46.75 227.8 46.6624 227.91 46.5804C228.014 46.4969 228.118 46.4545 228.218 46.4545C228.412 46.4545 228.57 46.5694 228.696 46.7992L229.744 48.5431C229.198 49.0081 228.555 49.3692 227.807 49.6208C227.062 49.8684 226.292 49.9929 225.496 49.9929C224.102 49.9929 223.033 49.6031 222.279 48.8221C221.526 48.0466 221.154 46.9401 221.154 45.5176V35.7739H219.31C219.116 35.7739 218.947 35.7083 218.801 35.5811C218.656 35.458 218.587 35.2665 218.587 35.0148Z" fill="white"/>
<path fill-rule="evenodd" clip-rule="evenodd" d="M195.508 23.6846C197.21 23.6846 198.587 25.0605 198.587 26.7538C198.587 28.4498 197.21 29.823 195.508 29.823C193.806 29.823 192.429 28.4498 192.429 26.7538C192.429 25.0605 193.805 23.6846 195.508 23.6846Z" fill="#F93262"/>
<path fill-rule="evenodd" clip-rule="evenodd" d="M27.4677 26.7921C30.6047 25.4503 34.9534 28.4388 37.1819 33.4694C39.4091 38.4999 38.6722 43.6658 35.5366 45.0103C32.3996 46.3507 28.051 43.3622 25.8238 38.3316C23.5966 33.3011 24.3308 28.1352 27.4677 26.7921Z" fill="#F93262"/>
<path fill-rule="evenodd" clip-rule="evenodd" d="M47.788 63.1493C49.2069 66.1214 50.7109 65.1708 50.6409 62.1727C50.597 60.2989 50.5298 59.9447 50.4406 57.9491C50.3596 56.1437 50.4557 54.2864 52.2547 53.8774C52.735 53.7693 53.1947 53.6982 54.1306 53.4849C54.9745 53.2934 55.4397 53.1169 55.5797 52.8201C55.8912 52.1568 55.2435 51.3731 53.9426 50.7248C51.5 49.5061 48.82 48.2205 45.753 46.9252C42.6174 45.5971 41.462 44.9488 40.8596 45.4877C40.3038 45.9842 40.9021 47.2111 42.5419 51.1351C44.426 55.6472 46.9839 61.3999 47.788 63.1493Z" fill="white"/>
<path fill-rule="evenodd" clip-rule="evenodd" d="M37.0517 4.67711C38.7656 5.80686 40.9969 7.50832 42.8206 9.3151C49.9302 16.3644 54.6988 26.8344 56.1218 36.7368C56.2755 37.8036 56.5527 39.8785 56.5349 41.0834C56.4896 43.9899 55.4549 46.2316 53.719 45.9498C51.7334 45.6257 50.7124 43.9215 50.6328 41.7878C50.5683 40.0385 50.3007 37.9541 50.0208 36.5398C49.428 33.5554 48.4166 30.7926 47.032 27.666C41.5609 15.3112 32.1061 8.46984 24.4037 11.7661C20.4296 13.4648 18.3932 17.9879 17.7167 22.1075C16.0412 32.3012 20.3404 43.8476 29.4041 52.0869C9.53671 41.0889 7.41522 13.7671 17.9417 4.94929C23.089 0.63546 28.928 -0.678931 37.0517 4.67711Z" fill="url(#paint0_linear)"/>
<defs>
<linearGradient id="paint0_linear" x1="48.3251" y1="49.3775" x2="23.5033" y2="15.5635" gradientUnits="userSpaceOnUse">
<stop stop-color="white"/>
<stop offset="1" stop-color="#E4E1E1"/>
</linearGradient>
</defs>
</svg>
